<svg xmlns:xlink="http://www.w3.org/1999/xlink" xmlns="http://www.w3.org/2000/svg" width="24" height="24" viewBox="0 0 24 24" fill="none">
<path d="M21.9 7.89L20.85 4.52C20.63 3.62 19.85 3 18.94 3H5.04995C4.14995 3 3.35995 3.63 3.14995 4.52L2.09995 7.89C1.63995 9.86 2.94995 11 2.99995 11.06V19C2.99995 20.1 3.89995 21 4.99995 21H19C20.1 21 21 20.1 21 19V11.06C22.12 9.94 22.09 8.65 21.9 7.89ZM13 5H14.96L15.5 8.52C15.59 9.23 15.11 10 14.22 10C13.55 10 13 9.41 13 8.69V5ZM6.43995 8.86C6.35995 9.51 5.83995 10 5.22995 10C4.29995 10 3.87995 9.03 4.03995 8.36L5.04995 5H7.01995L6.43995 8.86ZM10.5 16H8.99995V17H10.5C10.78 17 11 17.22 11 17.5C11 17.78 10.78 18 10.5 18H8.49995C8.21995 18 7.99995 17.78 7.99995 17.5V15.5C7.99995 15.22 8.21995 15 8.49995 15H9.99995V14H8.49995C8.21995 14 7.99995 13.78 7.99995 13.5C7.99995 13.22 8.21995 13 8.49995 13H10.5C10.78 13 11 13.22 11 13.5V15.5C11 15.78 10.78 16 10.5 16ZM11 8.69C11 9.41 10.45 10 9.70995 10C8.95995 10 8.40995 9.3 8.48995 8.52L9.03995 5H11V8.69ZM15.5 18C15.22 18 15 17.78 15 17.5V16H13.5C13.22 16 13 15.78 13 15.5V13.5C13 13.22 13.22 13 13.5 13C13.78 13 14 13.22 14 13.5V15H15V13.5C15 13.22 15.22 13 15.5 13C15.78 13 16 13.22 16 13.5V17.5C16 17.78 15.78 18 15.5 18ZM18.77 10C18.16 10 17.63 9.51 17.56 8.86L16.98 5L18.91 4.99L19.96 8.36C20.12 9.03 19.71 10 18.77 10Z" fill="#2474E5"/>
</svg>