<svg xmlns:xlink="http://www.w3.org/1999/xlink" xmlns="http://www.w3.org/2000/svg" width="24" height="24" viewBox="0 0 24 24" fill="none">
<g id="Icons/ Rounded / shield_lock">
<path id="Vector" d="M10 16.0004H14C14.2833 16.0004 14.5208 15.9046 14.7125 15.7129C14.9042 15.5212 15 15.2837 15 15.0004V12.0004C15 11.7171 14.9042 11.4796 14.7125 11.2879C14.5208 11.0962 14.2833 11.0004 14 11.0004V10.0004C14 9.45039 13.8042 8.97956 13.4125 8.58789C13.0208 8.19622 12.55 8.00039 12 8.00039C11.45 8.00039 10.9792 8.19622 10.5875 8.58789C10.1958 8.97956 10 9.45039 10 10.0004V11.0004C9.71667 11.0004 9.47917 11.0962 9.2875 11.2879C9.09583 11.4796 9 11.7171 9 12.0004V15.0004C9 15.2837 9.09583 15.5212 9.2875 15.7129C9.47917 15.9046 9.71667 16.0004 10 16.0004ZM11 11.0004V10.0004C11 9.71706 11.0958 9.47956 11.2875 9.28789C11.4792 9.09622 11.7167 9.00039 12 9.00039C12.2833 9.00039 12.5208 9.09622 12.7125 9.28789C12.9042 9.47956 13 9.71706 13 10.0004V11.0004H11ZM12 21.9004C11.8833 21.9004 11.775 21.8921 11.675 21.8754C11.575 21.8587 11.475 21.8337 11.375 21.8004C9.125 21.0504 7.33333 19.6629 6 17.6379C4.66667 15.6129 4 13.4337 4 11.1004V6.37539C4 5.95872 4.12083 5.58372 4.3625 5.25039C4.60417 4.91706 4.91667 4.67539 5.3 4.52539L11.3 2.27539C11.5333 2.19206 11.7667 2.15039 12 2.15039C12.2333 2.15039 12.4667 2.19206 12.7 2.27539L18.7 4.52539C19.0833 4.67539 19.3958 4.91706 19.6375 5.25039C19.8792 5.58372 20 5.95872 20 6.37539V11.1004C20 13.4337 19.3333 15.6129 18 17.6379C16.6667 19.6629 14.875 21.0504 12.625 21.8004C12.525 21.8337 12.425 21.8587 12.325 21.8754C12.225 21.8921 12.1167 21.9004 12 21.9004Z" fill="#141414"/>
</g>
</svg>