<svg xmlns:xlink="http://www.w3.org/1999/xlink" xmlns="http://www.w3.org/2000/svg" width="24" height="24" viewBox="0 0 24 24" fill="none">
<g clip-path="url(#clip0_42659_231095)">
<rect x="2" y="2" width="20" height="20" rx="4" fill="#EE0033"/>
<path d="M12 22C17.5229 22 22 17.5229 22 12C22 6.47713 17.5229 2 12 2C6.47713 2 2 6.47713 2 12C2 17.5229 6.47713 22 12 22Z" fill="#EE0033"/>
<path d="M10.9089 5.73474H9.55725C9.21469 5.73474 8.88619 5.87082 8.64394 6.11305C8.40175 6.35526 8.26562 6.68382 8.26562 7.02638V16.9763C8.26562 17.1459 8.29906 17.3139 8.36394 17.4706C8.42887 17.6273 8.524 17.7696 8.64394 17.8896C8.76387 18.0095 8.90625 18.1047 9.063 18.1696C9.21969 18.2345 9.38762 18.2679 9.55725 18.2679H10.9089C10.9514 18.2679 10.9934 18.2596 11.0325 18.2433C11.0717 18.2271 11.1073 18.2033 11.1372 18.1733C11.1672 18.1433 11.1911 18.1078 11.2072 18.0686C11.2235 18.0294 11.2319 17.9874 11.2319 17.945V16.9788C11.2319 16.8931 11.1978 16.811 11.1372 16.7504C11.0767 16.6899 10.9946 16.6559 10.9089 16.6559H8.81069V7.34489H10.9089C10.9945 7.3442 11.0762 7.30963 11.1363 7.24876C11.1964 7.18788 11.2299 7.10564 11.2294 7.02007V6.05764C11.2294 5.97243 11.1957 5.89068 11.1357 5.8302C11.0756 5.76971 10.9942 5.7354 10.9089 5.73474Z" fill="white"/>
<path d="M14.4435 5.73474H13.0918C13.0063 5.73491 12.9243 5.769 12.8639 5.82954C12.8035 5.89007 12.7695 5.97211 12.7695 6.05764V7.02008C12.7695 7.10564 12.8035 7.18764 12.8639 7.2482C12.9243 7.30876 13.0063 7.34283 13.0918 7.34301H15.1907V16.6571H13.0918C13.0063 16.6573 12.9243 16.6914 12.8639 16.752C12.8035 16.8125 12.7695 16.8945 12.7695 16.9801V17.9444C12.7695 18.0299 12.8035 18.112 12.8639 18.1725C12.9243 18.233 13.0063 18.2671 13.0918 18.2673H14.4435C14.6135 18.2676 14.7818 18.2344 14.9388 18.1696C15.0959 18.1047 15.2387 18.0095 15.3589 17.8895C15.4791 17.7693 15.5745 17.6267 15.6395 17.4696C15.7044 17.3126 15.7378 17.1443 15.7377 16.9744V7.02639C15.7377 6.85651 15.7042 6.68839 15.6391 6.53151C15.574 6.37464 15.4787 6.23213 15.3585 6.11216C15.2382 5.99219 15.0956 5.89711 14.9386 5.83234C14.7816 5.76758 14.6133 5.73441 14.4435 5.73474Z" fill="white"/>
</g>
<defs>
<clipPath id="clip0_42659_231095">
<rect x="2" y="2" width="20" height="20" rx="4" fill="white"/>
</clipPath>
</defs>
</svg>